<svg xmlns="http://www.w3.org/2000/svg" viewBox="0 0 20 20">
  <path d="M26,6H4C2.895,6,2,6.895,2,8v16c0,1.105,0.895,2,2,2h22c1.105,0,2-0.895,2-2V8C28,6.895,27.105,6,26,6z M9.707,9.707l-2,2 C7.52,11.895,7.266,12,7,12H6c-0.553,0-1-0.447-1-1s0.447-1,1-1h0.586l1.707-1.707c0.391-0.391,1.023-0.391,1.414,0 S10.098,9.316,9.707,9.707z M24,22H13c-0.552,0-1-0.448-1-1c0-0.552,0.448-1,1-1h11c0.552,0,1,0.448,1,1C25,21.552,24.552,22,24,22z M24,17H13c-0.552,0-1-0.448-1-1c0-0.552,0.448-1,1-1h11c0.552,0,1,0.448,1,1C25,16.552,24.552,17,24,17z M24,12H13 c-0.552,0-1-0.448-1-1c0-0.552,0.448-1,1-1h11c0.552,0,1,0.448,1,1C25,11.552,24.552,12,24,12z" fill="#FFFFFF" />
</svg>